<svg xmlns="http://www.w3.org/2000/svg" viewBox="0 0 24 24" className="fill-current text-gray-700 hover:text-primary-500 dark:text-gray-200 dark:hover:text-primary-400 h-6 w-6">
    <title>Instagram</title>
    <path d="M12 2.163c3.204 0 3.584.012 4.849.07 1.366.062 2.633.332 3.608 1.307.976.975 1.245 2.243 1.307 3.608.058 1.265.069 1.645.069 4.849s-.011 3.584-.069 4.849c-.062 1.366-.331 2.633-1.307 3.608-.975.976-2.242 1.245-3.608 1.307-1.265.058-1.645.069-4.849.069s-3.584-.011-4.849-.069c-1.366-.062-2.633-.331-3.608-1.307-.976-.975-1.245-2.242-1.307-3.608C2.175 15.584 2.163 15.204 2.163 12s.012-3.584.07-4.849c.062-1.366.332-2.633 1.307-3.608C4.515 2.495 5.782 2.225 7.148 2.163 8.413 2.105 8.793 2.163 12 2.163zm0-2.163C8.766 0 8.352.01 7.083.07c-1.548.071-2.908.384-4.002 1.478C1.986 2.63 1.572 3.991 1.501 5.54.942 7.084.932 7.497.932 12s.01 4.916.07 6.46c.071 1.548.384 2.908 1.478 4.002C4.63 23.986 5.991 24.4 7.54 24.469 9.084 25.028 9.497 25.038 12 25.038s2.916-.01 4.46-.07c1.548-.071 2.908-.384 4.002-1.478 1.094-1.094 1.407-2.454 1.478-4.002.06-1.544.07-1.957.07-6.46s-.01-4.916-.07-6.46c-.071-1.548-.384-2.908-1.478-4.002-1.094-1.094-2.454-1.407-4.002-1.478C15.916.01 15.497 0 12 0z"/>
    <path d="M12 5.838a6.162 6.162 0 1 0 0 12.324 6.162 6.162 0 0 0 0-12.324zm0 10.162a4 4 0 1 1 0-8 4 4 0 0 1 0 8z"/>
    <circle cx="18.406" cy="5.594" r="1.44"/>
</svg>
