<svg xmlns="http://www.w3.org/2000/svg" viewBox="0 0 24 24" className="fill-current text-gray-700 hover:text-primary-500 dark:text-gray-200 dark:hover:text-primary-400 h-6 w-6">
    <title>LinkedIn</title>
    <path d="M19.998 3H4.002A1.997 1.997 0 0 0 2 4.998v14.004C2 20.106 2.893 21 4.002 21h15.996A1.998 1.998 0 0 0 22 19.002V4.998A1.998 1.998 0 0 0 19.998 3zm-12.8 14.198h-2.8V9h2.8v8.198zM7.4 7.794a1.62 1.62 0 1 1 0-3.24 1.62 1.62 0 0 1 0 3.24zM19 17.198h-2.8v-4.376c0-1.042-.373-1.75-1.305-1.75-.712 0-1.135.475-1.32.937-.068.167-.084.4-.084.634v4.555H10.8V9h2.687v1.113h.038c.168-.26.473-.617.947-.904.572-.367 1.248-.586 1.968-.586 2.32 0 3.56 1.518 3.56 3.973v4.602z"/>
</svg>
