<svg xmlns="http://www.w3.org/2000/svg" viewBox="0 0 24 24" className="fill-current text-gray-700 hover:text-primary-500 dark:text-gray-200 dark:hover:text-primary-400 h-6 w-6">
    <title>Téléphone</title>
    <path d="M6.62 10.79a15.466 15.466 0 0 0 6.59 6.59l2.2-2.2a1.14 1.14 0 0 1 1.16-.27c1.26.42 2.62.65 4.02.65a1.15 1.15 0 0 1 1.15 1.15v3.84a1.15 1.15 0 0 1-1.15 1.15C10.65 22 2 13.35 2 2.15A1.15 1.15 0 0 1 3.15 1h3.84a1.15 1.15 0 0 1 1.15 1.15c0 1.4.23 2.76.65 4.02.14.46.02.97-.27 1.16l-2.2 2.2z"/>
</svg>
