<svg xmlns="http://www.w3.org/2000/svg" viewBox="0 0 24 24" className="fill-current text-gray-700 hover:text-primary-500 dark:text-gray-200 dark:hover:text-primary-400 h-6 w-6">
    <title>YouTube</title>
    <path d="M23.499 6.203a2.842 2.842 0 0 0-2.003-2.007C19.91 3.6 12 3.6 12 3.6s-7.91 0-9.496.596A2.842 2.842 0 0 0 .501 6.203 29.68 29.68 0 0 0 0 12a29.68 29.68 0 0 0 .501 5.797 2.842 2.842 0 0 0 2.003 2.007C4.09 20.4 12 20.4 12 20.4s7.91 0 9.496-.596a2.842 2.842 0 0 0 2.003-2.007A29.68 29.68 0 0 0 24 12a29.68 29.68 0 0 0-.501-5.797zM9.602 15.202V8.798L15.798 12 9.602 15.202z"/>
</svg>
